<svg xmlns="http://www.w3.org/2000/svg" viewBox="0 0 4750 1687.5" height="1687.5" width="4750">
    <style type="text/css">
        #logo-arrow {
            stroke-dashArray: 3300;
            stroke-dashoffset: 3300;
        }
        #logo-line-1 {
            stroke-dashArray: 2400;
            stroke-dashoffset: 2400;
        }
        #logo-line-2 {
            stroke-dashArray: 12000;
            stroke-dashoffset: 12000;
        }
        .animate-draw {
            stroke-width: 15;
            stroke-mitterlimit: 5;
            fill-opacity: 0;
            -webkit-animation-timing-function: ease-in-out;
            -webkit-animation-fill-mode: forwards;
            -webkit-animation-name: DrawLine, FadeStroke, FillIn;
            -webkit-animation-delay: 0s, 3s, 3s;
            -webkit-animation-duration: 3s, 1s, 1s;
            -moz-animation-timing-function: ease-in-out;
            -moz-animation-fill-mode: forwards;
            -moz-animation-name: DrawLine, FadeStroke, FillIn;
            -moz-animation-delay: 0s, 3s, 3s;
            -moz-animation-duration: 3s, 1s, 1s;
            -ms-animation-timing-function: ease-in-out;
            -ms-animation-fill-mode: forwards;
            -ms-animation-name: DrawLine, FadeStroke, FillIn;
            -ms-animation-delay: 0s, 3s, 3s;
            -ms-animation-duration: 3s, 1s, 1s;
            -o-animation-timing-function: ease-in-out;
            -o-animation-fill-mode: forwards;
            -o-animation-name: DrawLine, FadeStroke, FillIn;
            -o-animation-delay: 0s, 3s, 3s;
            -o-animation-duration: 3s, 1s, 1s;
            animation-timing-function: ease-in-out;
            animation-fill-mode: forwards;
            animation-name: DrawLine, FadeStroke, FillIn;
            animation-delay: 0s, 3s, 3s;
            animation-duration: 3s, 1s, 1s;
        }
        @keyframes DrawLine {
            to { stroke-dashOffset: 0; }
        }
        @keyframes FadeStroke {
            to { stroke-opacity: 0; }
        }
        @keyframes FillIn {
            from { fill-opacity: 0; }
            to { fill-opacity: 1; }
        }
    </style>
    <defs>
        <clipPath id="a">
            <path d="M0 1350h3800V0H0v1350z"/>
        </clipPath>
    </defs>
    <g clip-path="url(#a)" transform="matrix(1.25 0 0 -1.25 0 1687.5)">
        <path id="logo-arrow" class="animate-draw" stroke="#46bc49" d="M1139 1330.03c9.03 3.29 19.24 3.54 28.62 1.47 10.4-2.26 19.6-8.33 27.31-15.53 51.18-46.17 102.34-92.33 153.51-138.5 4.9-4.83 10.56-8.71 15.72-13.23 60.1-49.93 120.24-99.81 180.36-149.72 6.44-5.47 13.13-10.68 19.43-16.29-16.98-12.05-33.83-24.29-50.74-36.44-5.3-4-9.92-8.82-15.44-12.53-138.26-99.42-276.41-198.98-414.68-298.37-12.53-9.41-29.01-14.01-44.46-10.39-10.21 2.11-19.67 7.74-26.63 15.51-13.64 14.81-16.62 37.86-7.79 55.8 4.19 8.91 11.16 16.21 19.08 21.94 67.81 48.84 135.67 97.63 203.49 146.46 32.71 23.45 65.27 47.14 98.08 70.45-163.29-.01-326.58.01-489.87 0-6.94-.04-13.97-.02-20.72 1.77-14.79 3.48-27.76 13.94-34.1 27.77-5.93 12.61-6.31 27.68-.88 40.51 4.88 12.12 14.8 22.05 26.82 27.11 7.8 3.48 16.43 4.58 24.91 4.45 167.76.01 335.51 0 503.26.01-12.57 12.06-25.89 23.47-38.75 35.27-57.27 51.74-114.65 103.35-171.88 155.14-13.61 12.1-21.16 31.21-17.37 49.25 2.9 17.36 16.1 32.5 32.72 38.09" fill="#46bc49"/>
        <path id="logo-line-1" class="animate-draw" stroke="#007213" d="M1898.02 1041.9c7.07 4 14.7 7.98 23.03 8 4.85-.03 9.44-2.79 11.98-6.89 4.38-6.95 5.55-15.3 6.56-23.3 1.54-13.53 1.21-27.18 1.56-40.77 2.33-50.64 14.26-100.49 32.06-147.84 13.83-36.66 31.18-71.97 51.44-105.51 8.28-13.52 16.87-26.89 26.36-39.6-6.82-17.4-18.07-34.01-34.6-43.41-15.93-9.09-35.74-7.91-52.44-1.63-18.56 7.07-33.47 21.24-45.04 37.03-14.09 19.31-24.13 41.24-32.34 63.59-15.53 43.09-24.45 88.27-30.72 133.55-3.15 23.85-5.68 47.8-6.8 71.83-57.73-49.91-114.93-100.42-172.27-150.77-91.38-80.55-182.57-161.31-273.5-242.36-2.02-1.65-3.78-3.62-5.95-5.06-27.44-.03-54.9.07-82.35-.04-1.69.26-3.62-.23-5.06.83 61.81 46.72 122.32 95.17 182.28 144.24 92.63 76.08 183.46 154.34 272.79 234.26 27.65 24.66 54.98 49.69 82.44 74.57 16.03 14.09 32.22 28.25 50.57 39.28" fill="#007213"/>
        <path id="logo-line-2" class="animate-draw" stroke="#007213" d="M588.05 482.37c-77.3-2.76-154.58-7.29-231.54-15.15-44.9-4.71-89.77-10.38-134.02-19.46-17.68-3.72-35.27-7.96-52.43-13.64-11.02-3.53-21.05-9.81-29.52-17.65-9.65-8.96-16.29-21.29-17.56-34.49-1.49-15.47 2.72-31.14 10.18-44.65 10.61-18.4 25.79-33.77 42.29-46.95 20.74-16.37 43.98-29.34 68.06-40.09 40.32-17.85 83.07-29.72 126.35-37.81 51.12-9.49 103.18-13.57 155.15-13.41 49.27.25 98.53 4.35 147.16 12.3 87.65 14.34 173.5 41.11 252.66 81.58 33.2 17.23 65.29 36.49 97.18 56.02 68.98 42.55 135.75 88.58 201.43 136.02-157.79.02-315.59 0-473.38.01-54.02.29-108.03-.57-162.01-2.63M3041 982.96c91.59 10.72 186.88-9.82 265.19-58.75 32.48-20.48 62.05-46.04 85.19-76.8 26.23-34.63 43.76-76.67 45.44-120.38.93-25.21-2.16-50.7-10.22-74.66-7.51-22.4-19.47-43.27-34.84-61.21-25.78-30.15-59.97-52.01-96.11-67.73-42.43-18.37-87.84-29.15-133.6-35.02-13.3-1.65-26.65-2.9-40.04-3.41-598.63-.02-1197.27.04-1795.9-.03-28.45-25.26-56.76-50.68-85.12-76.05-28.24-25.12-55.84-51.04-85.96-73.93-68.31-52.59-144.54-94.48-224.48-126.55-83.72-33.63-171.58-56.59-260.73-70.18-101.12-15.11-204.24-18.45-305.9-6.84-51.36 6.06-102.42 15.92-151.63 32.02-38.62 12.82-76.47 29.34-109.55 53.33-20.07 14.7-38.39 32.5-50.78 54.27-8.02 14.03-13.27 29.75-14.55 45.9-2.25 32.47 5.91 65.73 23.68 93.08 18.36 28.59 45.49 50.47 74.77 67.15 31.33 17.83 65.41 30.36 100.03 40.04 23.3 6.74 47.16 11.04 71.2 14.23 70.59 9.43 141.77 13.59 212.89 16.5 40.68.6 81.38.22 122.06.33h375.98c96.99.05 193.99-.15 290.96.17 24.33-.45 48.7-.09 73.04-.19 5.28.01 10.58-.18 15.86.21 55.68-.43 111.4-.08 167.1-.19h1226.04c56.99.14 114-.45 170.98.8 50.68 1.16 101.37 3.53 151.82 8.54 47.15 4.78 94.34 11.51 139.95 24.71 22.95 6.82 45.6 15.34 66.11 27.84 16.58 10.13 31.73 23.3 41.89 40.05 12.13 19.7 16.22 43.45 14.99 66.31-1.66 23.62-11.05 45.98-23.14 66.08-20.83 34.07-49.65 62.71-81.53 86.5-34.3 25.41-72.84 45.36-113.91 57.23-22.48 6.4-45.75 10.36-69.15 10.61-48.15.75-96.5-8.73-140.46-28.51-36.46-16.17-69.93-38.3-101.68-62.27-45.2-34.41-87.39-72.53-129.6-110.48-16.29-14.88-33.14-29.29-51.83-41.1-15.92-9.88-33.47-18.6-52.49-19.67-13.83-.98-27.75 3.91-38.3 12.81-13.75 11.46-23.02 27.19-31.1 42.91-12.28 23.97-21.22 49.6-35.05 72.78-5.42 9.53-13.14 17.96-22.89 23.14-13.26 7.23-29.06 7.87-43.66 5.36-23.44-4.09-45.16-14.57-65.69-26.22-28.02-16.2-54.1-35.53-79.2-55.9-15.44-12.83-31.69-25.87-51.33-31.43-11.87-3.48-25.43-2.5-35.74 4.73-13.45 9.29-20.9 24.64-26.44 39.54-9.91 30.42-25.25 58.96-44.07 84.78-8.22 10.99-17.3 21.45-28.04 30.04-7.35 5.88-12.14 15.03-11.96 24.53.06 12.32 6.79 23.7 15.66 31.87 13.66 12.54 32.53 18.47 50.89 18.11 8.43-.44 15.39-6.1 20.76-12.17 10.14-11.87 17.16-25.96 24.3-39.75 7.69-15.18 15.01-30.57 23.69-45.23 7.13-11.82 15.01-23.51 25.69-32.43 7.92-6.64 17.98-11.21 28.48-10.92 13.09.22 25.12 6.62 35.44 14.2 10.78 7.73 19.48 17.85 29.65 26.3 21.56 18.4 46.72 32.84 74.01 40.74 27.15 8.03 56.28 9.4 84.02 3.64 24.77-5.14 48.54-15.91 68.02-32.17 15.99-13.28 29.03-30.49 35.91-50.23 4.93-13.82 9.97-27.75 17.64-40.34 5.17-8.32 12.33-16.5 22.3-18.73 11.08-2.41 22.13 2.18 31.73 7.36 16.24 9.14 30.56 21.24 44.5 33.51 15.64 14.01 30.64 28.71 45.42 43.61 13.2 13.14 25.56 27.12 39.38 39.64 29.96 27.58 63.89 50.96 100.71 68.44 38.77 18.53 80.63 30.48 123.3 35.53" fill="#007213"/>
    </g>
</svg>
