<?xml version="1.0" encoding="UTF-8" standalone="no"?>
<svg
   xmlns:dc="http://purl.org/dc/elements/1.1/"
   xmlns:cc="http://creativecommons.org/ns#"
   xmlns:rdf="http://www.w3.org/1999/02/22-rdf-syntax-ns#"
   xmlns:svg="http://www.w3.org/2000/svg"
   xmlns="http://www.w3.org/2000/svg"
   viewBox="0 0 4533.2534 1611.16"
   height="1611.16"
   width="4533.2534"
   xml:space="preserve"
   id="svg2"
   version="1.1"><metadata
     id="metadata8"><rdf:RDF><cc:Work
         rdf:about=""><dc:format>image/svg+xml</dc:format><dc:type
           rdf:resource="http://purl.org/dc/dcmitype/StillImage" /></cc:Work></rdf:RDF></metadata><defs
     id="defs6" /><g
     transform="matrix(1.3333333,0,0,-1.3333333,0,1611.16)"
     id="g10"><g
       transform="scale(0.231766)"
       id="g12"><path
         id="path14"
         style="fill:#4bbc3c;fill-opacity:1;fill-rule:nonzero;stroke:none"
         d="m 4754.63,5201.69 c 38.96,14.2 83.02,15.27 123.49,6.35 44.87,-9.75 84.57,-35.95 117.83,-67.01 220.83,-199.21 441.57,-398.38 662.35,-597.59 21.15,-20.84 45.57,-37.58 67.83,-57.08 259.32,-215.43 518.8,-430.65 778.2,-646 27.79,-23.6 56.65,-46.08 83.84,-70.29 -73.27,-51.99 -145.97,-104.8 -218.93,-157.22 -22.87,-17.26 -42.8,-38.06 -66.62,-54.07 C 5706.07,3129.82 5109.99,2700.24 4513.4,2271.4 c -54.06,-40.6 -125.17,-60.45 -191.83,-44.83 -44.07,9.11 -84.89,33.4 -114.92,66.93 -58.85,63.89 -71.71,163.35 -33.61,240.75 18.08,38.45 48.15,69.95 82.32,94.67 292.6,210.73 585.39,421.24 878.02,631.93 141.13,101.18 281.62,203.4 423.19,303.97 -704.55,-0.04 -1409.12,0.05 -2113.67,0 -29.94,-0.17 -60.27,-0.08 -89.4,7.64 -63.81,15.02 -119.77,60.15 -147.13,119.82 -25.58,54.41 -27.23,119.43 -3.8,174.79 21.06,52.29 63.86,95.14 115.72,116.97 33.66,15.01 70.89,19.76 107.48,19.2 723.84,0.05 1447.65,0 2171.44,0.05 -54.24,52.03 -111.71,101.26 -167.19,152.17 -247.11,223.25 -494.69,445.93 -741.62,669.39 -58.72,52.2 -91.3,134.66 -74.94,212.49 12.51,74.91 69.46,140.23 141.17,164.35" /><path
         id="path16"
         style="fill:#60b636;fill-opacity:1;fill-rule:nonzero;stroke:none"
         d="m 5488.05,1829.36 c 1.16,1.77 2.54,3.37 4.14,4.79 6.21,-4.57 14.54,-2.46 21.83,-3.58 118.44,0.47 236.92,0.04 355.32,0.17 l 2.29,-1.29 c -22.79,-1.68 -45.65,-0.86 -68.44,-0.91 -105.02,0.43 -210.17,-1.12 -315.14,0.82" /><path
         id="path18"
         style="fill:#227135;fill-opacity:1;fill-rule:nonzero;stroke:none"
         d="m 8029.58,3958.5 c 30.51,17.25 63.43,34.43 99.37,34.52 20.93,-0.13 40.73,-12.04 51.69,-29.73 18.9,-29.99 23.95,-66.02 28.31,-100.54 6.64,-58.37 5.21,-117.27 6.73,-175.91 10.05,-218.49 61.52,-433.58 138.32,-637.88 59.68,-158.18 134.54,-310.53 221.95,-455.25 35.73,-58.33 72.79,-116.02 113.74,-170.86 -29.43,-75.08 -77.97,-146.74 -149.29,-187.3 -68.73,-39.22 -154.21,-34.13 -226.26,-7.03 -80.09,30.5 -144.42,91.64 -194.34,159.77 -60.79,83.32 -104.11,177.94 -139.53,274.37 -67.01,185.92 -105.5,380.86 -132.56,576.23 -13.58,102.91 -24.5,206.24 -29.33,309.93 -249.09,-215.35 -495.89,-433.29 -743.3,-650.53 -394.28,-347.55 -787.73,-696.01 -1180.07,-1045.72 -8.72,-7.11 -16.31,-15.61 -25.67,-21.83 -118.4,-0.13 -236.88,0.3 -355.32,-0.17 -7.29,1.12 -15.62,-0.99 -21.83,3.58 266.69,201.58 527.77,410.63 786.49,622.35 399.66,328.27 791.57,665.94 1177,1010.77 119.3,106.4 237.23,214.39 355.71,321.75 69.16,60.79 139.02,121.89 218.19,169.48" /><path
         id="path20"
         style="fill:#227135;fill-opacity:1;fill-rule:nonzero;stroke:none"
         d="m 2377.43,1544.29 c -333.53,-11.91 -666.97,-31.45 -999.03,-65.37 -193.73,-20.32 -387.33,-44.78 -578.255,-83.96 -76.286,-16.05 -152.18,-34.35 -226.219,-58.85 -47.551,-15.23 -90.824,-42.33 -127.371,-76.16 -41.637,-38.66 -70.289,-91.86 -75.766,-148.81 -6.43,-66.75 11.734,-134.363 43.922,-192.656 45.781,-79.402 111.277,-145.718 182.469,-202.586 89.488,-70.632 189.761,-126.597 293.66,-172.98 173.97,-77.016 358.42,-128.23 545.16,-163.137 220.57,-40.945 445.2,-58.551 669.43,-57.859 212.59,1.078 425.13,18.766 634.95,53.07 378.19,61.871 748.6,177.375 1090.16,351.992 143.25,74.344 281.7,157.446 419.3,241.723 297.64,183.593 585.74,382.203 869.13,586.883 -680.82,0.09 -1361.7,0 -2042.52,0.05 -233.07,1.25 -466.11,-2.46 -699.02,-11.35 z m 10583.77,2159.9 c 395.2,46.25 806.3,-42.37 1144.2,-253.49 140.2,-88.36 267.7,-198.65 367.6,-331.37 113.2,-149.42 188.8,-330.81 196.1,-519.4 4,-108.78 -9.4,-218.76 -44.1,-322.14 -32.4,-96.65 -84.1,-186.7 -150.4,-264.1 -111.2,-130.09 -258.7,-224.41 -414.7,-292.24 -183,-79.26 -379,-125.77 -576.4,-151.1 -57.4,-7.12 -115,-12.51 -172.8,-14.71 -2582.9,-0.09 -5165.83,0.17 -7748.74,-0.13 C 5439.2,1446.52 5317.05,1336.84 5194.69,1227.38 5072.84,1118.99 4953.76,1007.15 4823.8,908.387 4529.06,681.465 4200.13,500.723 3855.21,362.348 3493.99,217.246 3114.9,118.18 2730.24,59.543 2293.94,-5.65234 1849.01,-20.0625 1410.38,30.0313 1188.77,56.1797 968.461,98.7227 756.137,168.188 589.5,223.504 426.188,294.781 283.457,398.289 196.863,461.719 117.816,538.52 64.3555,632.449 29.7539,692.984 7.10156,760.813 1.57813,830.496 -8.12891,970.605 27.0781,1114.11 103.75,1232.12 c 79.219,123.36 196.277,217.76 322.609,289.73 135.184,76.94 282.227,131 431.602,172.76 100.535,29.09 203.489,47.64 307.209,61.4 304.58,40.69 611.69,58.64 918.56,71.19 175.52,2.59 351.13,0.95 526.65,1.43 540.76,0 1081.48,0 1622.25,0 418.5,0.21 837.02,-0.65 1255.42,0.73 104.97,-1.94 210.12,-0.39 315.14,-0.82 22.79,0.05 45.65,-0.77 68.44,0.91 240.24,-1.86 480.65,-0.35 720.98,-0.82 1763.34,0 3526.69,0 5289.99,0 245.9,0.6 491.9,-1.94 737.7,3.45 218.7,5.01 437.4,15.23 655.1,36.85 203.4,20.62 407,49.66 603.8,106.61 99.1,29.43 196.8,66.19 285.3,120.12 71.5,43.72 136.9,100.54 180.7,172.81 52.4,85 70,187.48 64.7,286.11 -7.2,101.91 -47.7,198.39 -99.8,285.12 -89.9,147 -214.3,270.57 -351.8,373.21 -148,109.64 -314.3,195.72 -491.5,246.94 -97,27.61 -197.4,44.7 -298.4,45.78 -207.7,3.23 -416.3,-37.67 -606,-123.02 -157.3,-69.77 -301.7,-165.25 -438.7,-268.67 -195,-148.47 -377.1,-312.95 -559.2,-476.69 -70.3,-64.2 -143,-126.38 -223.6,-177.34 -68.7,-42.62 -144.5,-80.25 -226.5,-84.87 -59.7,-4.22 -119.8,16.87 -165.3,55.27 -59.3,49.45 -99.3,117.32 -134.2,185.15 -52.9,103.42 -91.5,214.01 -151.2,314.02 -23.4,41.12 -56.7,77.5 -98.8,99.84 -57.2,31.2 -125.3,33.96 -188.3,23.13 -101.2,-17.65 -194.9,-62.86 -283.5,-113.13 -120.87,-69.9 -233.39,-153.3 -341.69,-241.19 -66.62,-55.36 -136.73,-111.62 -221.48,-135.61 -51.21,-15.02 -109.72,-10.79 -154.2,20.41 -58.03,40.08 -90.18,106.31 -114.09,170.6 -42.75,131.25 -108.94,254.4 -190.14,365.8 -35.47,47.42 -74.65,92.55 -120.99,129.62 -31.71,25.36 -52.38,64.84 -51.6,105.84 0.26,53.15 29.3,102.25 67.57,137.5 58.93,54.11 140.35,79.69 219.57,78.14 36.38,-1.89 66.41,-26.32 89.58,-52.51 43.75,-51.21 74.03,-112.01 104.84,-171.51 33.18,-65.5 64.77,-131.9 102.22,-195.15 30.76,-51 64.76,-101.44 110.84,-139.93 34.18,-28.65 77.58,-48.37 122.88,-47.12 56.48,0.95 108.39,28.57 152.92,61.27 46.51,33.36 84.05,77.02 127.93,113.48 93.04,79.39 201.54,141.7 319.34,175.78 117.1,34.65 242.8,40.56 362.5,15.71 106.9,-22.18 209.5,-68.65 293.5,-138.81 69,-57.3 125.3,-131.55 154.9,-216.72 21.3,-59.63 43.1,-119.74 76.2,-174.06 22.3,-35.9 53.2,-71.19 96.2,-80.81 47.8,-10.4 95.5,9.4 136.9,31.75 70,39.44 131.8,91.65 192,144.59 67.5,60.45 132.2,123.88 196,188.16 56.9,56.7 110.2,117.02 169.9,171.04 129.2,119 275.6,219.87 434.5,295.3 167.3,79.95 347.9,131.51 532,153.3" /></g></g></svg>